<svg width="48" height="48" viewBox="0 0 48 48" fill="none" xmlns="http://www.w3.org/2000/svg">
<rect width="48" height="48" rx="5" fill="#DA1E28"/>
<path fill-rule="evenodd" clip-rule="evenodd" d="M18.5581 18.5581C18.8021 18.314 19.1979 18.314 19.4419 18.5581L24 23.1161L28.5581 18.5581C28.8021 18.314 29.1979 18.314 29.4419 18.5581C29.686 18.8021 29.686 19.1979 29.4419 19.4419L24.8839 24L29.4419 28.5581C29.686 28.8021 29.686 29.1979 29.4419 29.4419C29.1979 29.686 28.8021 29.686 28.5581 29.4419L24 24.8839L19.4419 29.4419C19.1979 29.686 18.8021 29.686 18.5581 29.4419C18.314 29.1979 18.314 28.8021 18.5581 28.5581L23.1161 24L18.5581 19.4419C18.314 19.1979 18.314 18.8021 18.5581 18.5581Z" fill="white"/>
</svg>
