<svg width="43" height="27" viewBox="0 0 43 27" fill="none" xmlns="http://www.w3.org/2000/svg">
<path d="M13.84 15.4C14.7733 16.9733 15.7067 18.3733 16.64 19.6C17.6 20.8 18.8533 22.28 20.4 24.04C20.5867 24.2267 20.68 24.44 20.68 24.68C20.68 25.0533 20.4667 25.3733 20.04 25.64C19.64 25.9067 19.1467 26.04 18.56 26.04C17.7333 26.04 16.84 25.6933 15.88 25C15.0267 24.3867 14.2667 23.5733 13.6 22.56C12.9333 21.5467 12.16 20.2267 11.28 18.6C10.5867 17.3467 10.1733 16.6133 10.04 16.4C9 16.8267 7.37333 17.0933 5.16 17.2C5.16 18.1067 5.24 19.3333 5.4 20.88C5.56 22.48 5.64 23.64 5.64 24.36C5.64 24.84 5.4 25.24 4.92 25.56C4.46667 25.88 3.94667 26.04 3.36 26.04C2.66667 26.04 2.13333 25.76 1.76 25.2C1.38667 24.4533 1.14667 23.56 1.04 22.52C0.933334 21.48 0.88 20.24 0.88 18.8C0.88 17.28 0.973333 15.56 1.16 13.64C1.32 11.5067 1.4 9.93333 1.4 8.92C1.4 8.09333 1.32 6.98667 1.16 5.6C1.13333 5.36 1.09333 4.94667 1.04 4.36C0.986667 3.77333 0.96 3.24 0.96 2.76C0.96 2.38667 1.09333 2.06667 1.36 1.8C1.65333 1.50666 1.96 1.30667 2.28 1.2C4.44 0.853333 6.54667 0.679999 8.6 0.679999C12.0933 0.679999 14.9867 1.33333 17.28 2.64C19.5733 3.94667 20.72 5.93333 20.72 8.6C20.72 9.42667 20.5333 10.2267 20.16 11C19.8133 11.7467 19.3333 12.3733 18.72 12.88C17.0933 14.1333 15.4667 14.9733 13.84 15.4ZM16.52 8.48C16.52 7.2 15.84 6.16 14.48 5.36C13.12 4.53333 11.1867 4.12 8.68 4.12C7.56 4.12 6.45333 4.25333 5.36 4.52L5.4 6.56C5.4 7.73333 5.36 8.88 5.28 10C5.2 11.12 5.16 12.32 5.16 13.6C5.61333 13.4933 6.09333 13.4267 6.6 13.4C7.10667 13.3467 7.44 13.3067 7.6 13.28C8.77333 13.1733 9.68 13.04 10.32 12.88C11.52 12.5067 12.5067 12.1733 13.28 11.88C14.08 11.56 14.8133 11.12 15.48 10.56C16.1733 9.97333 16.52 9.28 16.52 8.48Z" fill="#469753"/>
<path d="M26.9006 26.12C26.2873 26.12 25.8206 25.96 25.5006 25.64C25.1806 25.2933 25.0206 24.9467 25.0206 24.6C25.1806 23.64 25.274 22.6133 25.3006 21.52C25.3273 20.4267 25.3406 19.7733 25.3406 19.56V18.12C25.3406 17.0267 25.3273 16.0667 25.3006 15.24C25.274 14.3867 25.2473 13.6667 25.2206 13.08C25.114 10.7333 25.0606 8.90667 25.0606 7.6V6.36C25.114 5.08 25.1806 3.96 25.2606 3C25.2873 2.62666 25.514 2.22667 25.9406 1.8C26.394 1.37333 27.0073 1.10667 27.7806 1C30.314 0.733332 33.4606 0.599998 37.2206 0.599998H38.5006C39.434 0.599998 40.354 0.773331 41.2606 1.12C42.194 1.46667 42.6606 2.05333 42.6606 2.88C42.6606 3.44 42.5273 3.89333 42.2606 4.24C41.994 4.56 41.474 4.72 40.7006 4.72C40.354 4.72 39.954 4.69333 39.5006 4.64C39.0473 4.58667 38.7273 4.54667 38.5406 4.52C37.5273 4.36 36.7406 4.28 36.1806 4.28C33.0873 4.28 30.7406 4.49333 29.1406 4.92V7.12V11.72C30.954 11.72 32.8473 11.64 34.8206 11.48C36.2606 11.3733 37.194 11.32 37.6206 11.32C38.234 11.32 38.754 11.4667 39.1806 11.76C39.634 12.0267 39.8606 12.44 39.8606 13C39.8606 14.3867 38.914 15.08 37.0206 15.08C36.5673 15.08 35.8873 15.1333 34.9806 15.24C33.9673 15.3467 33.1806 15.4 32.6206 15.4C32.274 15.4 31.7806 15.3733 31.1406 15.32C30.314 15.2667 29.754 15.2533 29.4606 15.28C29.434 15.9733 29.4473 17.0533 29.5006 18.52L29.5406 21.2C29.5406 22.1067 29.5273 22.7867 29.5006 23.24C29.474 23.6667 29.394 24.1333 29.2606 24.64C29.1806 25.0667 28.9406 25.4267 28.5406 25.72C28.1406 25.9867 27.594 26.12 26.9006 26.12Z" fill="#306DC7"/>
</svg>
